<svg width="400" height="400" viewBox="0 0 400 400" fill="none" xmlns="http://www.w3.org/2000/svg">
  <rect width="400" height="400" fill="#F3F4F6"/>
  <path d="M200 120C177.909 120 160 137.909 160 160C160 182.091 177.909 200 200 200C222.091 200 240 182.091 240 160C240 137.909 222.091 120 200 120ZM200 180C189.019 180 180 170.981 180 160C180 149.019 189.019 140 200 140C210.981 140 220 149.019 220 160C220 170.981 210.981 180 200 180Z" fill="#9CA3AF"/>
  <path d="M280 140H260V120H280V140ZM280 160H260V180H280V160ZM280 200H260V220H280V200ZM280 240H260V260H280V240ZM280 280H260V300H280V280Z" fill="#9CA3AF"/>
  <path d="M140 140H120V120H140V140ZM140 160H120V180H140V160ZM140 200H120V220H140V200ZM140 240H120V260H140V240ZM140 280H120V300H140V280Z" fill="#9CA3AF"/>
  <path d="M200 220C177.909 220 160 237.909 160 260C160 282.091 177.909 300 200 300C222.091 300 240 282.091 240 260C240 237.909 222.091 220 200 220ZM200 280C189.019 280 180 270.981 180 260C180 249.019 189.019 240 200 240C210.981 240 220 249.019 220 260C220 270.981 210.981 280 200 280Z" fill="#9CA3AF"/>
</svg>